<?xml version="1.0" encoding="utf-8"?>
<!-- Generator: Adobe Illustrator 24.3.0, SVG Export Plug-In . SVG Version: 6.00 Build 0)  -->
<svg version="1.1" id="Layer_1" xmlns="http://www.w3.org/2000/svg" xmlns:xlink="http://www.w3.org/1999/xlink" x="0px" y="0px"
	 viewBox="0 0 739.8 531" style="enable-background:new 0 0 739.8 531;" xml:space="preserve">
<style type="text/css">
	.st0{opacity:7.500000e-02;}
	.st1{fill:none;stroke:#FFFFFF;stroke-width:7.7119;stroke-miterlimit:10;}
	.st2{fill:#FFFFFF;}
	.st3{fill:none;stroke:#FFFFFF;stroke-width:3.8559;stroke-miterlimit:10;}
	.st4{fill:none;stroke:#FFFFFF;stroke-width:12.1097;stroke-miterlimit:10;}
	.st5{fill:none;stroke:#FFFFFF;stroke-width:6.0548;stroke-miterlimit:10;}
</style>
<g class="st0">
	<g>
		<g>
			<circle class="st1" cx="589.2" cy="379.8" r="131.1"/>
			<g>
				<path class="st2" d="M604.6,247.6v-19h-32v19.3c5.6-0.7,11.2-1.2,16.9-1.2C594.6,246.7,599.6,247,604.6,247.6z"/>
				<path class="st2" d="M572.6,511.8V531h32v-19c-5,0.6-10,0.9-15.1,0.9C583.7,512.9,578.1,512.5,572.6,511.8z"/>
				<path class="st2" d="M457.4,363.8h-20.1v32h20.1c-0.6-5.3-1.1-10.6-1.1-16C456.4,374.4,456.8,369.1,457.4,363.8z"/>
				<path class="st2" d="M721.6,395.8h18.2v-32h-18.2c0.6,5.3,1.1,10.6,1.1,16C722.6,385.2,722.2,390.6,721.6,395.8z"/>
				<path class="st2" d="M506.9,275.5L493,261.6l-22.6,22.6l14.1,14.1C491,289.8,498.5,282.2,506.9,275.5z"/>
				<path class="st2" d="M671,484.9l13.2,13.2l22.6-22.6l-13-13C687.1,470.8,679.5,478.3,671,484.9z"/>
				<path class="st2" d="M693.8,297.2l13-13l-22.6-22.6L671,274.7C679.5,281.3,687.1,288.8,693.8,297.2z"/>
				<path class="st2" d="M484.4,461.3l-14.1,14.1l22.6,22.6l13.9-13.9C498.5,477.5,491,469.8,484.4,461.3z"/>
			</g>
		</g>
		<g>
			<circle class="st3" cx="589" cy="379.8" r="94.1"/>
			<g>
				<path class="st2" d="M600.1,284.9v-13.6h-23v13.8c4-0.5,8-0.9,12.2-0.9C592.9,284.2,596.5,284.5,600.1,284.9z"/>
				<path class="st2" d="M577.1,474.5v13.8h23v-13.6c-3.6,0.4-7.2,0.7-10.8,0.7C585.1,475.4,581.1,475.1,577.1,474.5z"/>
				<path class="st2" d="M494.4,368.3H480v23h14.4c-0.5-3.8-0.8-7.6-0.8-11.5C493.6,375.9,493.9,372.1,494.4,368.3z"/>
				<path class="st2" d="M684.1,391.3h13.1v-23h-13.1c0.5,3.8,0.8,7.6,0.8,11.5C684.8,383.7,684.5,387.5,684.1,391.3z"/>
				<path class="st2" d="M529.9,304.9l-10-10l-16.2,16.2l10.1,10.1C518.5,315.2,523.9,309.7,529.9,304.9z"/>
				<path class="st2" d="M647.8,455.3l9.4,9.4l16.2-16.2l-9.4-9.4C659.3,445.1,653.8,450.6,647.8,455.3z"/>
				<path class="st2" d="M664.1,320.5l9.4-9.4l-16.2-16.2l-9.4,9.4C653.8,309.1,659.3,314.5,664.1,320.5z"/>
				<path class="st2" d="M513.8,438.4l-10.1,10.1l16.2,16.2l10-10C523.9,449.9,518.5,444.4,513.8,438.4z"/>
			</g>
		</g>
		<g>
			<polygon class="st2" points="594.8,364.7 582.3,364.7 573.5,373.6 573.5,386.1 582.3,394.9 594.8,394.9 603.7,386.1 603.7,373.6 
							"/>
		</g>
	</g>
	<g>
		<g>
			<circle class="st4" cx="231" cy="230.5" r="205.8"/>
			<g>
				<path class="st2" d="M335.8,49.6l11.9-27.4l-46.1-20L289.5,30c8.4,2.5,16.9,5.3,25.1,8.9C322,42.1,329,45.7,335.8,49.6z"/>
				<path class="st2" d="M124.6,410.1l-12.1,27.8l46.1,20l11.9-27.4c-7.5-2.3-14.9-4.9-22.3-8.1
					C139.9,418.8,132.1,414.6,124.6,410.1z"/>
				<path class="st2" d="M51.2,125.1l-28.9-12.5l-20,46.1l28.9,12.5c2.4-8,5.1-15.9,8.5-23.7C43,139.6,47,132.2,51.2,125.1z"/>
				<path class="st2" d="M411.7,336.3l26.2,11.4l20-46.1l-26.2-11.4c-2.4,8-5.1,15.9-8.5,23.7C419.8,321.7,415.9,329.1,411.7,336.3z
					"/>
				<path class="st2" d="M177.6,28.8L166.3,0l-46.7,18.5L131,47.5C145.8,39.5,161.4,33.2,177.6,28.8z"/>
				<path class="st2" d="M283.2,433l10.7,27.2l46.7-18.5L330,414.8C315.2,422.7,299.5,428.8,283.2,433z"/>
				<path class="st2" d="M433.3,176.9l26.9-10.6l-18.5-46.7l-27.2,10.7C422.6,145,428.9,160.6,433.3,176.9z"/>
				<path class="st2" d="M29.1,282.4L0,293.9l18.5,46.7l28.8-11.4C39.3,314.5,33.3,298.7,29.1,282.4z"/>
			</g>
		</g>
		<g>
			<circle class="st5" cx="230.7" cy="230.4" r="147.8"/>
			<g>
				<path class="st2" d="M306,100.5l8.5-19.7l-33.1-14.4l-8.7,19.9c6.1,1.8,12.1,3.8,18,6.4C296.1,95.1,301.1,97.7,306,100.5z"/>
				<path class="st2" d="M154.3,359.4l-8.7,19.9l33.1,14.4l8.5-19.7c-5.4-1.6-10.7-3.5-16-5.8C165.4,365.6,159.8,362.6,154.3,359.4z
					"/>
				<path class="st2" d="M101.6,154.7l-20.8-9l-14.4,33.1l20.8,9c1.7-5.7,3.7-11.4,6.1-17C95.8,165.1,98.6,159.8,101.6,154.7z"/>
				<path class="st2" d="M360.5,306.3l18.8,8.2l14.4-33.1l-18.8-8.2c-1.7,5.7-3.7,11.4-6.1,17C366.3,295.9,363.5,301.2,360.5,306.3z
					"/>
				<path class="st2" d="M192.4,85.6l-8.2-20.7l-33.6,13.2l8.2,20.9C169.5,93.2,180.8,88.7,192.4,85.6z"/>
				<path class="st2" d="M268.2,375.8l7.7,19.5l33.6-13.2l-7.6-19.3C291.2,368.4,279.9,372.8,268.2,375.8z"/>
				<path class="st2" d="M376,191.9l19.3-7.6L382,150.7l-19.5,7.7C368.3,169,372.9,180.2,376,191.9z"/>
				<path class="st2" d="M85.8,267.7l-20.9,8.2l13.2,33.6l20.7-8.2C93.1,290.7,88.8,279.4,85.8,267.7z"/>
			</g>
		</g>
		<g>
			<polygon class="st2" points="248.5,212.2 230.5,204.4 212.2,211.6 204.4,229.7 211.6,247.9 229.7,255.8 247.9,248.5 255.8,230.5 
							"/>
		</g>
	</g>
</g>
</svg>
