<?xml version="1.0" encoding="utf-8"?>
<!-- Generator: Adobe Illustrator 24.3.0, SVG Export Plug-In . SVG Version: 6.00 Build 0)  -->
<svg version="1.1" id="Layer_1" xmlns="http://www.w3.org/2000/svg" xmlns:xlink="http://www.w3.org/1999/xlink" x="0px" y="0px"
	 viewBox="0 0 3160 1519.2" style="enable-background:new 0 0 3160 1519.2;" xml:space="preserve">
<style type="text/css">
	.st0{fill:#0B2343;}
	.st1{opacity:0.5;}
	.st2{clip-path:url(#SVGID_2_);}
	.st3{fill:none;stroke:#FFFFFF;stroke-width:1.6753;stroke-miterlimit:10;}
	.st4{fill:none;stroke:#FFFFFF;stroke-width:1.6753;stroke-miterlimit:10;stroke-dasharray:3.3367,3.3367;}
	.st5{fill:none;stroke:#FFFFFF;stroke-width:1.6753;stroke-miterlimit:10;stroke-dasharray:2.6147,2.6147;}
	.st6{fill:none;stroke:#FFFFFF;stroke-width:1.6753;stroke-miterlimit:10;stroke-dasharray:2.6626,2.6626;}
	.st7{fill:none;stroke:#FFFFFF;stroke-width:1.6753;stroke-miterlimit:10;stroke-dasharray:3.1393,3.1393;}
	.st8{fill:none;stroke:#FFFFFF;stroke-width:1.6753;stroke-miterlimit:10;stroke-dasharray:3.535,3.535;}
	.st9{fill:none;stroke:#FFFFFF;stroke-width:1.6753;stroke-miterlimit:10;stroke-dasharray:3.5259,3.5259;}
	.st10{fill:none;stroke:#FFFFFF;stroke-width:1.6753;stroke-miterlimit:10;stroke-dasharray:3.0495,3.0495;}
	.st11{fill:none;stroke:#FFFFFF;stroke-width:1.6753;stroke-miterlimit:10;stroke-dasharray:2.5713,2.5713;}
	.st12{fill:none;stroke:#FFFFFF;stroke-width:1.6753;stroke-miterlimit:10;stroke-dasharray:3.4838,3.4838;}
	.st13{fill:none;stroke:#FFFFFF;stroke-width:1.6753;stroke-miterlimit:10;stroke-dasharray:3.3448,3.3448;}
	.st14{fill:none;stroke:#FFFFFF;stroke-width:1.6753;stroke-miterlimit:10;stroke-dasharray:3.486,3.486;}
	.st15{fill:none;stroke:#FFFFFF;stroke-width:1.6753;stroke-miterlimit:10;stroke-dasharray:3.354,3.354;}
	.st16{fill:none;stroke:#FFFFFF;stroke-width:1.6753;stroke-miterlimit:10;stroke-dasharray:3.3563,3.3563;}
	.st17{fill:none;stroke:#FFFFFF;stroke-width:1.6753;stroke-miterlimit:10;stroke-dasharray:3.3589,3.3589;}
	.st18{fill:none;stroke:#FFFFFF;stroke-width:1.6753;stroke-miterlimit:10;stroke-dasharray:3.3455,3.3455;}
	.st19{fill:none;stroke:#FFFFFF;stroke-width:1.6753;stroke-miterlimit:10;stroke-dasharray:3.3491,3.3491;}
	.st20{fill:none;stroke:#FFFFFF;stroke-width:1.6753;stroke-miterlimit:10;stroke-dasharray:3.3402,3.3402;}
	.st21{fill:none;stroke:#FFFFFF;stroke-width:1.6753;stroke-miterlimit:10;stroke-dasharray:3.3575,3.3575;}
	.st22{fill:none;stroke:#FFFFFF;stroke-width:1.6616;stroke-miterlimit:10;stroke-dasharray:3.3231,3.3231;}
	.st23{fill:none;stroke:#FFFFFF;stroke-width:1.6753;stroke-miterlimit:10;stroke-dasharray:3.3506,3.3506;}
	.st24{clip-path:url(#SVGID_4_);}
	.st25{fill:none;stroke:#FFFFFF;stroke-width:1.6753;stroke-miterlimit:10;stroke-dasharray:3.2979,3.2979;}
	.st26{clip-path:url(#SVGID_6_);}
	.st27{fill:none;stroke:#FFFFFF;stroke-width:1.6753;stroke-miterlimit:10;stroke-dasharray:3.3947,3.3947;}
	.st28{clip-path:url(#SVGID_8_);}
	.st29{fill:none;stroke:#FFFFFF;stroke-width:1.6753;stroke-miterlimit:10;stroke-dasharray:3.2934,3.2934;}
	.st30{clip-path:url(#SVGID_10_);}
	.st31{fill:none;stroke:#FFFFFF;stroke-width:1.6753;stroke-miterlimit:10;stroke-dasharray:3.3507,3.3507;}
	.st32{clip-path:url(#SVGID_12_);}
	.st33{fill:none;stroke:#FFFFFF;stroke-width:1.6753;stroke-miterlimit:10;stroke-dasharray:3.3166,3.3166;}
	.st34{clip-path:url(#SVGID_14_);}
	.st35{fill:none;stroke:#FFFFFF;stroke-width:1.6753;stroke-miterlimit:10;stroke-dasharray:3.3314,3.3314;}
	.st36{clip-path:url(#SVGID_16_);}
	.st37{fill:none;stroke:#FFFFFF;stroke-width:1.6753;stroke-miterlimit:10;stroke-dasharray:3.3516,3.3516;}
	.st38{clip-path:url(#SVGID_18_);}
	.st39{fill:none;stroke:#FFFFFF;stroke-width:1.6753;stroke-miterlimit:10;stroke-dasharray:3.3244,3.3244;}
	.st40{clip-path:url(#SVGID_20_);}
	.st41{fill:none;stroke:#FFFFFF;stroke-width:1.6753;stroke-miterlimit:10;stroke-dasharray:3.3556,3.3556;}
	.st42{clip-path:url(#SVGID_22_);}
	.st43{fill:none;stroke:#FFFFFF;stroke-width:1.6753;stroke-miterlimit:10;stroke-dasharray:3.3702,3.3702;}
	.st44{clip-path:url(#SVGID_24_);}
	.st45{fill:none;stroke:#FFFFFF;stroke-width:1.6753;stroke-miterlimit:10;stroke-dasharray:3.3854,3.3854;}
	.st46{clip-path:url(#SVGID_26_);}
	.st47{fill:none;stroke:#FFFFFF;stroke-width:1.6753;stroke-miterlimit:10;stroke-dasharray:3.3823,3.3823;}
	.st48{clip-path:url(#SVGID_28_);}
	.st49{fill:none;stroke:#FFFFFF;stroke-width:1.6753;stroke-miterlimit:10;stroke-dasharray:3.3926,3.3926;}
	.st50{clip-path:url(#SVGID_30_);}
	.st51{fill:none;stroke:#FFFFFF;stroke-width:1.6753;stroke-miterlimit:10;stroke-dasharray:3.3835,3.3835;}
	.st52{clip-path:url(#SVGID_32_);}
	.st53{fill:none;stroke:#FFFFFF;stroke-width:1.6753;stroke-miterlimit:10;stroke-dasharray:3.3428,3.3428;}
	.st54{clip-path:url(#SVGID_34_);}
	.st55{fill:none;stroke:#FFFFFF;stroke-width:1.6753;stroke-miterlimit:10;stroke-dasharray:3.3592,3.3592;}
	.st56{clip-path:url(#SVGID_36_);}
	.st57{fill:none;stroke:#FFFFFF;stroke-width:1.6753;stroke-miterlimit:10;stroke-dasharray:3.3133,3.3133;}
	.st58{clip-path:url(#SVGID_38_);}
	.st59{fill:none;stroke:#FFFFFF;stroke-width:1.6753;stroke-miterlimit:10;stroke-dasharray:3.419,3.419;}
	.st60{clip-path:url(#SVGID_40_);}
	.st61{fill:none;stroke:#FFFFFF;stroke-width:1.6753;stroke-miterlimit:10;stroke-dasharray:3.5093,3.5093;}
	.st62{fill:none;stroke:#FFFFFF;stroke-width:1.6642;stroke-miterlimit:10;stroke-dasharray:3.3283,3.3283;}
	.st63{fill:none;stroke:#FFFFFF;stroke-width:1.6753;stroke-miterlimit:10;stroke-dasharray:3.3377,3.3377;}
	.st64{fill:none;stroke:#FFFFFF;stroke-width:1.6633;stroke-miterlimit:10;stroke-dasharray:3.3267,3.3267;}
	.st65{fill:none;stroke:#FFFFFF;stroke-width:1.6753;stroke-miterlimit:10;stroke-dasharray:2.5754,2.5754;}
	.st66{fill:none;stroke:#FFFFFF;stroke-width:1.6753;stroke-miterlimit:10;stroke-dasharray:2.4775,2.4775;}
	.st67{clip-path:url(#SVGID_42_);}
	.st68{clip-path:url(#SVGID_44_);}
	.st69{clip-path:url(#SVGID_46_);}
	.st70{clip-path:url(#SVGID_48_);}
	.st71{clip-path:url(#SVGID_50_);}
	.st72{clip-path:url(#SVGID_52_);}
	.st73{clip-path:url(#SVGID_54_);}
	.st74{clip-path:url(#SVGID_56_);}
	.st75{clip-path:url(#SVGID_58_);}
	.st76{clip-path:url(#SVGID_60_);}
	.st77{clip-path:url(#SVGID_62_);}
	.st78{clip-path:url(#SVGID_64_);}
	.st79{clip-path:url(#SVGID_66_);}
	.st80{clip-path:url(#SVGID_68_);}
	.st81{clip-path:url(#SVGID_70_);}
	.st82{clip-path:url(#SVGID_72_);}
	.st83{fill:none;stroke:#FFFFFF;stroke-width:1.6753;stroke-miterlimit:10;stroke-dasharray:3.3632,3.3632;}
	.st84{clip-path:url(#SVGID_74_);}
	.st85{clip-path:url(#SVGID_76_);}
	.st86{clip-path:url(#SVGID_78_);}
	.st87{fill:none;stroke:#FFFFFF;stroke-width:1.6753;stroke-miterlimit:10;stroke-dasharray:3.4088,3.4088;}
	.st88{fill:none;stroke:#FFFFFF;stroke-width:1.6226;stroke-miterlimit:10;stroke-dasharray:3.3706,3.3706;}
	.st89{fill:none;stroke:#FFFFFF;stroke-width:1.6088;stroke-miterlimit:10;stroke-dasharray:3.2176,3.2176;}
	.st90{fill:none;stroke:#FFFFFF;stroke-width:1.6088;stroke-miterlimit:10;stroke-dasharray:3.2868,3.2868;}
	.st91{fill:none;stroke:#FFFFFF;stroke-width:1.6753;stroke-miterlimit:10;stroke-dasharray:2.5736,2.5736;}
</style>
<g>
	<rect x="0.1" y="0.1" class="st0" width="3159.7" height="1519"/>
</g>
<g class="st1">
	<g>
		<g>
			<defs>
				<path id="SVGID_1_" d="M2215.3,944.2v-13.9h-5.7V827.9h4v-13.5h5.7V630.1h-381.9v5.3h-38.6c-0.1,0.2-3.5,0.3-9.5,0.4
					c3.3-14.7,5-30.1,5-45.8c0-115.6-93.7-209.3-209.3-209.3s-209.3,93.7-209.3,209.3c0,16.7,2,32.9,5.6,48.4c-5.6,0-8.7,0-8.9,0
					H1332v-6.6L941.1,632v188.6h4.5v12.6h8.6v103.6h-5.7v14.7h-9.1v187l390.6-1.7V953.6h141.6v12.7h222v-15.6H1838v178.4h382.7
					V944.2H2215.3z"/>
			</defs>
			<clipPath id="SVGID_2_">
				<use xlink:href="#SVGID_1_"  style="overflow:visible;"/>
			</clipPath>
			<g class="st2">
				<g>
					<g>
						<path class="st3" d="M2082.1,891.8h-1.7c0.5,0.1,1.1,0.3,1.6,0.4"/>
						<path class="st4" d="M2085.3,893.1c10.4,2.8,20.4,6.5,29.8,10.8"/>
						<path class="st3" d="M2116.6,904.5c0.5,0.2,1,0.5,1.5,0.7c-0.2-0.5-0.3-1.1-0.4-1.6"/>
						<path class="st5" d="M2117.1,901.1c-0.2-1.3-0.4-2.6-0.6-3.9"/>
						<path class="st3" d="M2116.4,895.9c0-0.6-0.1-1.1-0.1-1.7c-0.5-0.2-1-0.4-1.5-0.7"/>
						<path class="st6" d="M2112.3,892.6c-1.2-0.5-2.5-1-3.7-1.5"/>
						<path class="st3" d="M2107.3,890.6c-0.5-0.2-1-0.4-1.6-0.6v1.8h-1.7"/>
						<line class="st7" x1="2100.9" y1="891.8" x2="2083.7" y2="891.8"/>
					</g>
				</g>
				<g>
					<g>
						<path class="st3" d="M1933.1,907.9c-0.1,0.6-0.2,1.1-0.3,1.6c0.5-0.3,1-0.5,1.5-0.8"/>
						<path class="st8" d="M1937.3,907.1c11.8-6,24.5-10.9,37.9-14.4"/>
						<path class="st3" d="M1977,892.2c0.5-0.1,1.1-0.3,1.6-0.4h-1.7"/>
						<line class="st9" x1="1973.4" y1="891.8" x2="1954" y2="891.8"/>
						<path class="st3" d="M1952.3,891.8h-1.7v-0.7c-0.5,0.2-1,0.4-1.6,0.6"/>
						<path class="st10" d="M1946.2,892.8c-3.3,1.4-6.6,2.8-9.8,4.3"/>
						<path class="st3" d="M1935.1,897.8c-0.5,0.2-1,0.5-1.5,0.7v1.7"/>
						<path class="st11" d="M1933.5,902.8c0,1.3-0.1,2.6-0.3,3.8"/>
					</g>
				</g>
				<g>
					<g>
						<path class="st3" d="M2180.7,940.3c-0.4-0.4-0.7-0.8-1.1-1.3h-1.7"/>
						<line class="st12" x1="2174.4" y1="939" x2="2169.2" y2="939"/>
						<path class="st3" d="M2167.4,939h-1.7c0.4,0.4,0.8,0.8,1.2,1.2"/>
						<path class="st13" d="M2169.2,942.7c20.9,23,33.3,51.3,33.3,81.9c0,76.7-77.4,138.9-172.9,138.9
							c-95.5,0-172.9-62.2-172.9-138.9c0-31.2,12.8-60,34.4-83.2"/>
						<path class="st3" d="M1892.2,940.2c0.4-0.4,0.8-0.8,1.2-1.2h-1.7"/>
						<line class="st14" x1="1888.2" y1="939" x2="1883" y2="939"/>
						<path class="st3" d="M1881.3,939h-1.7c-0.4,0.4-0.7,0.8-1.1,1.3"/>
						<path class="st15" d="M1876.3,942.8c-19.4,23.4-30.7,51.5-30.7,81.8c0,81.6,82.4,147.8,184,147.8c101.6,0,184-66.2,184-147.8
							c0-30.8-11.7-59.4-31.8-83"/>
					</g>
				</g>
				<g>
					<g>
						<path class="st16" d="M2148.1,936.6c-8.7-2.9-16.2-8.3-21.8-15.3c-27.1-15.9-60.5-25.3-96.7-25.3
							c-40.4,0-77.3,11.7-105.8,31.1c-3.2,3.4-6.9,6.3-11.2,8.3c-28.7,23.5-46.4,55.6-46.4,91.1c0,72,73.1,130.5,163.4,130.5
							c90.2,0,163.4-58.4,163.4-130.5C2192.9,991.6,2175.9,960,2148.1,936.6z"/>
						<ellipse class="st17" cx="2029.6" cy="1024.6" rx="153.7" ry="123.5"/>
					</g>
				</g>
				<g>
					<g>
						<ellipse class="st18" cx="2029.6" cy="1026.2" rx="145.2" ry="115.9"/>
						<ellipse class="st19" cx="2029.6" cy="1028" rx="136.2" ry="108.2"/>
					</g>
				</g>
				<g>
					<g>
						<ellipse class="st20" cx="2029.6" cy="1027.8" rx="128.7" ry="100.1"/>
						<ellipse class="st21" cx="2029.6" cy="1029.5" rx="118.6" ry="92.2"/>
					</g>
				</g>
			</g>
		</g>
	</g>
	<g id="XMLID_18_">
		<g>
			<path class="st22" d="M1849.6,816.3v120.8h61.8c12.1,0,22-9.8,22-22v-98.9L1849.6,816.3z"/>
			<path class="st22" d="M1876.9,847.2v60.4c0,0.8,0.6,1.4,1.4,1.4h20.4c4.3,0,7.8-3.5,7.8-7.8v-53.9c0-0.8-0.6-1.4-1.4-1.4h-26.8
				C1877.5,845.8,1876.9,846.4,1876.9,847.2z"/>
		</g>
	</g>
	<g>
		<g id="XMLID_11_">
			<g>
				<path class="st23" d="M1545.5,723.4l21.3,4.5c1.7,0.2,3.4,0.4,5.1,0.6c4,0.4,8,0.6,12.1,0.6s8.2-0.2,12.2-0.6
					c1.9-0.2,3.8-0.4,5.7-0.6l19.8-4.2c0.3-0.1,0.7-0.2,1-0.3c8.7-2.6,17-6.1,24.8-10.3c7.9-4.2,15.3-9.3,22.1-14.9
					c6.5-5.4,12.5-11.5,17.9-18c5.7-6.9,10.7-14.4,14.9-22.3c4-7.5,7.3-15.5,9.8-23.8c1-3.3,1.9-6.7,2.6-10.1l2.4-16.4h0.3
					c0.4-4.3,0.6-8.6,0.6-13c0-4.2-0.2-8.3-0.6-12.4c-0.2-2.5-0.5-5.1-0.9-7.6l-3-14.7c-0.4-1.4-0.8-2.8-1.2-4.2
					c-2.5-8.3-5.8-16.3-9.8-23.9c-4.2-8-9.2-15.5-14.8-22.4c-5.6-6.9-11.9-13.2-18.7-18.9l-0.1,0.1l-21.9-14.8
					c-0.2-0.1-0.4-0.2-0.5-0.3c-7.5-4-15.4-7.2-23.6-9.7c-0.7-0.2-1.3-0.4-2-0.6l-13.5-3.1c-3.6-0.6-7.3-1.2-11-1.5
					c-4.2-0.4-8.4-0.6-12.7-0.6s-8.5,0.2-12.7,0.6c-3.8,0.4-7.6,0.9-11.3,1.6l-12.9,3c-0.7,0.2-1.5,0.4-2.2,0.7
					c-8.2,2.5-16.1,5.7-23.6,9.7c-0.2,0.1-0.3,0.2-0.5,0.2l-22,14.9l-0.1-0.1c-6.9,5.7-13.2,12-18.8,18.9
					c-5.7,6.9-10.6,14.4-14.8,22.4c-4,7.5-7.2,15.5-9.7,23.8c-0.3,1-0.6,2-0.9,3.1l-3.5,17c-0.3,2.1-0.5,4.2-0.7,6.4
					c-0.4,4.1-0.6,8.2-0.6,12.3c0,4.4,0.2,8.7,0.6,13.1h0.4l2.6,17.6c0.7,3,1.5,5.9,2.4,8.8c2.5,8.2,5.8,16,9.7,23.5
					c4.2,8,9.2,15.5,14.9,22.4c5.7,6.9,12.1,13.3,19,18.9s14.4,10.6,22.4,14.8l0,0c7.5,4,15.4,7.2,23.7,9.7"/>
				<polyline class="st23" points="1521.3,475.3 1516.6,462.5 1489.4,480.6 1498.8,490.4 				"/>
				<polyline class="st23" points="1455.2,555.5 1442.9,549.6 1436,581.6 1449.8,582 				"/>
				<polyline class="st23" points="1450.4,607.5 1437.1,606.1 1441.5,638.5 1454.6,634.3 				"/>
				<polyline class="st23" points="1571.2,459.4 1571.5,445.7 1539.6,452.9 1544.9,465.5 				"/>
				<polyline class="st23" points="1545.5,723.4 1545.4,723.4 1539.4,735.7 1571.3,742.7 1571.9,729 				"/>
				<polyline class="st23" points="1669.3,490.4 1678.7,480.6 1651.5,462.5 1646.8,475.4 				"/>
				<polyline class="st23" points="1718.4,582 1732.1,581.5 1725.3,549.6 1712.9,555.5 				"/>
				<polyline class="st23" points="1713.5,634.3 1726.6,638.5 1731.1,606.1 1717.7,607.5 				"/>
				<polyline class="st23" points="1623.2,465.6 1628.5,452.9 1596.6,445.7 1596.8,459.5 				"/>
				<polyline class="st23" points="1596.3,729 1596.9,742.8 1628.8,735.7 1622.8,723.4 				"/>
				<polyline class="st23" points="1648.2,714.2 1648.1,714.3 1653.1,727.1 1679.9,708.3 1670.1,698.6 				"/>
				<polyline class="st23" points="1688.5,680.8 1698.8,690 1716,662.2 1703,657.9 				"/>
				<polyline class="st23" points="1703.8,531.2 1716.3,525.7 1698.1,498.6 1688.9,508.6 				"/>
				<polyline class="st23" points="1479.6,509 1470.6,498.7 1451.8,525.5 1464.1,531.2 				"/>
				<polyline class="st23" points="1464.4,658 1451.7,662.4 1469.3,689.9 1479.5,680.6 				"/>
				<polyline class="st23" points="1499.1,699.1 1499,699 1488.8,708.1 1515.7,726.7 1521.5,714.1 				"/>
			</g>
		</g>
	</g>
	<g>
		<g>
			<defs>
				<path id="SVGID_3_" d="M1576.2,470.4v243.5c-63.1-4.6-112.9-57.3-112.9-121.8S1513.1,475,1576.2,470.4z"/>
			</defs>
			<clipPath id="SVGID_4_">
				<use xlink:href="#SVGID_3_"  style="overflow:visible;"/>
			</clipPath>
			<g class="st24">
				<g>
					<path class="st3" d="M1642.9,485.2c-0.1,0.4-0.3,0.9-0.5,1.6"/>
					<path class="st25" d="M1641,489.8c-5.8,12.1-24.5,39.6-56.1,38.8c-33.1-0.8-49.8-29.6-54.2-40.3"/>
					<path class="st3" d="M1530,486.8c-0.2-0.6-0.4-1.2-0.5-1.6"/>
				</g>
			</g>
		</g>
		<g>
			<defs>
				<path id="SVGID_5_" d="M1576.2,470.4v243.5c-63.1-4.6-112.9-57.3-112.9-121.8S1513.1,475,1576.2,470.4z"/>
			</defs>
			<clipPath id="SVGID_6_">
				<use xlink:href="#SVGID_5_"  style="overflow:visible;"/>
			</clipPath>
			<g class="st26">
				<g>
					<path class="st3" d="M1650.1,490.1c0,0.5-0.1,1-0.3,1.6"/>
					<path class="st27" d="M1648.6,494.9c-6.1,14.3-31.2,44.6-63.8,43.8c-34.3-0.8-56.7-29.7-62.7-43.2"/>
					<path class="st3" d="M1521.6,493.9c-0.2-0.6-0.4-1.1-0.5-1.6"/>
				</g>
			</g>
		</g>
		<g>
			<defs>
				<path id="SVGID_7_" d="M1576.2,470.4v243.5c-63.1-4.6-112.9-57.3-112.9-121.8S1513.1,475,1576.2,470.4z"/>
			</defs>
			<clipPath id="SVGID_8_">
				<use xlink:href="#SVGID_7_"  style="overflow:visible;"/>
			</clipPath>
			<g class="st28">
				<g>
					<path class="st3" d="M1659.9,495.3c0,0.5-0.1,1.1-0.2,1.7"/>
					<path class="st29" d="M1658.9,500.1c-6.3,19.1-40.1,49.5-74,48.7c-35-0.9-64.3-30-71.7-47"/>
					<path class="st3" d="M1512.5,500.3c-0.2-0.5-0.4-1.1-0.5-1.6"/>
				</g>
			</g>
		</g>
		<g>
			<defs>
				<path id="SVGID_9_" d="M1576.2,470.4v243.5c-63.1-4.6-112.9-57.3-112.9-121.8S1513.1,475,1576.2,470.4z"/>
			</defs>
			<clipPath id="SVGID_10_">
				<use xlink:href="#SVGID_9_"  style="overflow:visible;"/>
			</clipPath>
			<g class="st30">
				<g>
					<path class="st3" d="M1667.8,501.9c-0.1,0.5-0.3,1.1-0.4,1.6"/>
					<path class="st31" d="M1666.3,506.6c-8.1,20.6-40.3,53.1-83.5,51.7c-37.4-1.2-68.9-30.6-76.5-49.9"/>
					<path class="st3" d="M1505.7,507c-0.2-0.5-0.3-1.1-0.5-1.6"/>
				</g>
			</g>
		</g>
		<g>
			<defs>
				<path id="SVGID_11_" d="M1576.2,470.4v243.5c-63.1-4.6-112.9-57.3-112.9-121.8S1513.1,475,1576.2,470.4z"/>
			</defs>
			<clipPath id="SVGID_12_">
				<use xlink:href="#SVGID_11_"  style="overflow:visible;"/>
			</clipPath>
			<g class="st32">
				<g>
					<path class="st3" d="M1675.8,510.4c0,0.5-0.1,1.1-0.2,1.7"/>
					<path class="st33" d="M1674.8,515.2c-7,19.7-45.3,53.8-89.9,53.7c-35.8-0.1-78.6-27.8-87.2-53.5"/>
					<path class="st3" d="M1497.1,513.8c-0.2-0.5-0.3-1.1-0.4-1.6"/>
				</g>
			</g>
		</g>
		<g>
			<defs>
				<path id="SVGID_13_" d="M1576.2,470.4v243.5c-63.1-4.6-112.9-57.3-112.9-121.8S1513.1,475,1576.2,470.4z"/>
			</defs>
			<clipPath id="SVGID_14_">
				<use xlink:href="#SVGID_13_"  style="overflow:visible;"/>
			</clipPath>
			<g class="st34">
				<g>
					<path class="st3" d="M1681.8,518.3c-0.2,0.5-0.4,1-0.7,1.5"/>
					<path class="st35" d="M1679.8,522.9c-15.8,32.4-52.3,57-97,57.3c-43.1,0.3-83.9-36.4-92.4-56.4"/>
					<path class="st3" d="M1489.7,522.2c-0.2-0.5-0.4-1.1-0.5-1.6"/>
				</g>
			</g>
		</g>
		<g>
			<defs>
				<path id="SVGID_15_" d="M1576.2,470.4v243.5c-63.1-4.6-112.9-57.3-112.9-121.8S1513.1,475,1576.2,470.4z"/>
			</defs>
			<clipPath id="SVGID_16_">
				<use xlink:href="#SVGID_15_"  style="overflow:visible;"/>
			</clipPath>
			<g class="st36">
				<g>
					<path class="st3" d="M1689.9,528.5c-0.2,0.5-0.3,1.1-0.5,1.6"/>
					<path class="st37" d="M1688.1,533.2c-12.8,26.3-68.3,58.4-103.2,57.5c-35.6-0.9-91-32.3-99-55"/>
					<path class="st3" d="M1485.4,534.1c-0.1-0.6-0.3-1.1-0.3-1.6"/>
				</g>
			</g>
		</g>
		<g>
			<defs>
				<path id="SVGID_17_" d="M1576.2,470.4v243.5c-63.1-4.6-112.9-57.3-112.9-121.8S1513.1,475,1576.2,470.4z"/>
			</defs>
			<clipPath id="SVGID_18_">
				<use xlink:href="#SVGID_17_"  style="overflow:visible;"/>
			</clipPath>
			<g class="st38">
				<g>
					<path class="st3" d="M1695,537.5c-0.1,0.5-0.3,1.1-0.4,1.6"/>
					<path class="st39" d="M1693.3,542.2c-10.6,21.1-60.9,58-110.5,58.1c-40.2,0.1-93.8-36.3-103.6-56.3"/>
					<path class="st3" d="M1478.5,542.5c-0.2-0.5-0.4-1.1-0.5-1.6"/>
				</g>
			</g>
		</g>
		<g>
			<defs>
				<path id="SVGID_19_" d="M1576.2,470.4v243.5c-63.1-4.6-112.9-57.3-112.9-121.8S1513.1,475,1576.2,470.4z"/>
			</defs>
			<clipPath id="SVGID_20_">
				<use xlink:href="#SVGID_19_"  style="overflow:visible;"/>
			</clipPath>
			<g class="st40">
				<g>
					<path class="st3" d="M1700.5,548.8c0,0.5-0.1,1.1-0.3,1.6"/>
					<path class="st41" d="M1699.1,553.6c-10.1,20.1-69.5,57.3-114.2,57.2c-35.9-0.1-98-30.4-110.6-57.1"/>
					<path class="st3" d="M1473.6,552.2c-0.2-0.5-0.4-1-0.6-1.6"/>
				</g>
			</g>
		</g>
		<g>
			<defs>
				<path id="SVGID_21_" d="M1576.2,470.4v243.5c-63.1-4.6-112.9-57.3-112.9-121.8S1513.1,475,1576.2,470.4z"/>
			</defs>
			<clipPath id="SVGID_22_">
				<use xlink:href="#SVGID_21_"  style="overflow:visible;"/>
			</clipPath>
			<g class="st42">
				<g>
					<path class="st3" d="M1705.3,558.8c-0.2,0.5-0.5,1-0.7,1.5"/>
					<path class="st43" d="M1703,563.3c-19.9,34.2-75.4,56.8-120.2,57.1c-43.5,0.3-100.6-33.2-113.2-55.2"/>
					<path class="st3" d="M1468.7,563.7c-0.3-0.5-0.5-1-0.7-1.5"/>
				</g>
			</g>
		</g>
		<g>
			<defs>
				<path id="SVGID_23_" d="M1576.2,470.4v243.5c-63.1-4.6-112.9-57.3-112.9-121.8S1513.1,475,1576.2,470.4z"/>
			</defs>
			<clipPath id="SVGID_24_">
				<use xlink:href="#SVGID_23_"  style="overflow:visible;"/>
			</clipPath>
			<g class="st44">
				<g>
					<path class="st3" d="M1707.7,571.6c-0.2,0.5-0.5,1-0.7,1.5"/>
					<path class="st45" d="M1705.3,576c-20.1,34-77.7,54.1-122.5,54.4c-43.5,0.3-102.3-30.6-115.1-52.4"/>
					<path class="st3" d="M1466.8,576.6c-0.3-0.5-0.5-1-0.7-1.5"/>
				</g>
			</g>
		</g>
		<g>
			<defs>
				<path id="SVGID_25_" d="M1576.2,470.4v243.5c-63.1-4.6-112.9-57.3-112.9-121.8S1513.1,475,1576.2,470.4z"/>
			</defs>
			<clipPath id="SVGID_26_">
				<use xlink:href="#SVGID_25_"  style="overflow:visible;"/>
			</clipPath>
			<g class="st46">
				<g>
					<path class="st3" d="M1706.8,590c-0.3,0.5-0.6,0.9-0.9,1.4"/>
					<path class="st47" d="M1703.8,594.1c-16.9,19.5-73.7,46.4-118.9,47c-41.6,0.5-100.2-27.5-118.7-50"/>
					<path class="st3" d="M1465.1,589.7c-0.3-0.5-0.7-0.9-1-1.4"/>
				</g>
			</g>
		</g>
		<g>
			<defs>
				<path id="SVGID_27_" d="M1576.2,470.4v243.5c-63.1-4.6-112.9-57.3-112.9-121.8S1513.1,475,1576.2,470.4z"/>
			</defs>
			<clipPath id="SVGID_28_">
				<use xlink:href="#SVGID_27_"  style="overflow:visible;"/>
			</clipPath>
			<g class="st48">
				<g>
					<path class="st3" d="M1707,603.2c-0.4,0.4-0.8,0.8-1.2,1.1"/>
					<path class="st49" d="M1703.2,606.6c-29.1,25.2-74.7,44.7-119.3,44.1c-41.4-0.5-89.5-19.8-115.6-44.4"/>
					<path class="st3" d="M1467,605.2c-0.4-0.4-0.8-0.8-1.2-1.2"/>
				</g>
			</g>
		</g>
		<g>
			<defs>
				<path id="SVGID_29_" d="M1576.2,470.4v243.5c-63.1-4.6-112.9-57.3-112.9-121.8S1513.1,475,1576.2,470.4z"/>
			</defs>
			<clipPath id="SVGID_30_">
				<use xlink:href="#SVGID_29_"  style="overflow:visible;"/>
			</clipPath>
			<g class="st50">
				<g>
					<path class="st3" d="M1705,619c-0.4,0.4-0.8,0.8-1.2,1.1"/>
					<path class="st51" d="M1701.2,622.3c-26.5,21.9-73.9,38-118.5,38.4c-42.8,0.3-99.2-25.4-113.2-39.9"/>
					<path class="st3" d="M1468.4,619.4c-0.4-0.5-0.7-0.9-1-1.3"/>
				</g>
			</g>
		</g>
		<g>
			<defs>
				<path id="SVGID_31_" d="M1576.2,470.4v243.5c-63.1-4.6-112.9-57.3-112.9-121.8S1513.1,475,1576.2,470.4z"/>
			</defs>
			<clipPath id="SVGID_32_">
				<use xlink:href="#SVGID_31_"  style="overflow:visible;"/>
			</clipPath>
			<g class="st52">
				<g>
					<path class="st3" d="M1699.2,635.5c-0.4,0.3-0.8,0.7-1.3,1.1"/>
					<path class="st53" d="M1695.2,638.5c-17.5,11.9-65.9,32.8-110.4,32.7c-35.5-0.1-92.5-16.8-109.2-33.5"/>
					<path class="st3" d="M1474.6,636.5c-0.4-0.4-0.7-0.9-1.1-1.3"/>
				</g>
			</g>
		</g>
		<g>
			<defs>
				<path id="SVGID_33_" d="M1576.2,470.4v243.5c-63.1-4.6-112.9-57.3-112.9-121.8S1513.1,475,1576.2,470.4z"/>
			</defs>
			<clipPath id="SVGID_34_">
				<use xlink:href="#SVGID_33_"  style="overflow:visible;"/>
			</clipPath>
			<g class="st54">
				<g>
					<path class="st3" d="M1691.8,652.2c-0.4,0.3-0.8,0.7-1.3,1.1"/>
					<path class="st55" d="M1687.8,655.2c-16.6,11-58.6,26.1-102.9,26.1c-35.4-0.1-83.6-14.3-101.3-27.3"/>
					<path class="st3" d="M1482.3,653c-0.5-0.4-0.9-0.7-1.3-1.1"/>
				</g>
			</g>
		</g>
		<g>
			<defs>
				<path id="SVGID_35_" d="M1576.2,470.4v243.5c-63.1-4.6-112.9-57.3-112.9-121.8S1513.1,475,1576.2,470.4z"/>
			</defs>
			<clipPath id="SVGID_36_">
				<use xlink:href="#SVGID_35_"  style="overflow:visible;"/>
			</clipPath>
			<g class="st56">
				<g>
					<path class="st3" d="M1680.7,669.6c-0.5,0.3-1,0.6-1.4,0.8"/>
					<path class="st57" d="M1676.3,672c-16.7,8.8-47.1,19.4-91.4,19.3c-35.3-0.1-69.1-9.2-86.8-19"/>
					<path class="st3" d="M1496.7,671.5c-0.5-0.3-1-0.6-1.4-0.9"/>
				</g>
			</g>
		</g>
		<g>
			<defs>
				<path id="SVGID_37_" d="M1576.2,470.4v243.5c-63.1-4.6-112.9-57.3-112.9-121.8S1513.1,475,1576.2,470.4z"/>
			</defs>
			<clipPath id="SVGID_38_">
				<use xlink:href="#SVGID_37_"  style="overflow:visible;"/>
			</clipPath>
			<g class="st58">
				<g>
					<path class="st3" d="M1660.2,688.9c-0.5,0.2-1.1,0.4-1.6,0.6"/>
					<path class="st59" d="M1655.4,690.6c-16,5.7-32.7,10.8-67.5,11.7c-30.9,0.8-53.7-6.9-71.7-12"/>
					<path class="st3" d="M1514.6,689.9c-0.5-0.2-1.1-0.3-1.6-0.4"/>
				</g>
			</g>
		</g>
		<g>
			<defs>
				<path id="SVGID_39_" d="M1576.2,470.4v243.5c-63.1-4.6-112.9-57.3-112.9-121.8S1513.1,475,1576.2,470.4z"/>
			</defs>
			<clipPath id="SVGID_40_">
				<use xlink:href="#SVGID_39_"  style="overflow:visible;"/>
			</clipPath>
			<g class="st60">
				<g>
					<path class="st3" d="M1617.9,709c-0.5,0.2-1,0.3-1.6,0.5"/>
					<path class="st61" d="M1612.9,710.3c-7.3,1.5-16.9,2.3-26.5,2.2c-9.6,0-20.6-1.2-27.6-2.6"/>
					<path class="st3" d="M1557,709.6c-0.6-0.1-1.1-0.2-1.6-0.4"/>
				</g>
			</g>
		</g>
	</g>
	<path class="st23" d="M2215.3,944.2v-13.9h-5.7V827.9h4v-13.5h5.7V630.1h-381.9v5.3h-38.6c-0.1,0.2-3.5,0.3-9.5,0.4
		c3.3-14.7,5-30.1,5-45.8c0-115.6-93.7-209.3-209.3-209.3s-209.3,93.7-209.3,209.3c0,16.7,2,32.9,5.6,48.4c-5.6,0-8.7,0-8.9,0H1332
		v-6.6L941.1,632v188.6h4.5v12.6h8.6v103.6h-5.7v14.7h-9.1v187l390.6-1.7V953.6h141.6v12.7h222v-15.6H1838v178.4h382.7V944.2H2215.3
		z"/>
	<rect x="1495.8" y="834.1" class="st23" width="177.4" height="96.6"/>
	<g id="XMLID_15_">
		<g>
			<rect x="1950.7" y="825.4" class="st62" width="155.1" height="65.1"/>
		</g>
	</g>
	<path class="st23" d="M1836.9,711.1h-71v-40.3c0-9.7,7.9-17.6,17.6-17.6h53.4V711.1z"/>
	<g id="XMLID_5_">
		<g>
			<path class="st23" d="M1338.7,702.6h52.2v-29.9c0-5.3-4.3-9.6-9.6-9.6h-42.6V702.6z"/>
			<path class="st23" d="M1327.7,711.5h73.7v-40.7c0-9.7-7.9-17.6-17.6-17.6h-56.1V711.5z"/>
		</g>
	</g>
	<g id="XMLID_7_">
		<g>
			<path class="st23" d="M1338.7,808.4h109v-54.2c0-12.5-10.2-22.7-22.7-22.7h-86.3V808.4z"/>
			<path class="st23" d="M1327.7,817.4h129.7v-68.3c0-16.5-13.4-29.9-29.9-29.9h-99.7L1327.7,817.4L1327.7,817.4z"/>
		</g>
	</g>
	<g id="XMLID_8_">
		<g>
			<rect x="1865.9" y="661.1" class="st23" width="105.8" height="132.9"/>
			<rect x="1857.3" y="650.1" class="st23" width="123.2" height="154.7"/>
		</g>
	</g>
	<g id="XMLID_9_">
		<g>
			<rect x="2001.4" y="658" class="st23" width="193.2" height="135.9"/>
			<rect x="1993.6" y="649.3" class="st23" width="208.5" height="153.4"/>
		</g>
	</g>
	<ellipse class="st23" cx="1137.3" cy="883.7" rx="140.8" ry="182"/>
	<g>
		<ellipse class="st63" cx="2029.7" cy="1029.1" rx="103.6" ry="80.6"/>
	</g>
	<g id="XMLID_16_">
		<g>
			<path class="st64" d="M2202.9,816H2117v93.8c0,15.4,12.5,27.9,27.9,27.9h58V816z"/>
		</g>
	</g>
	<line class="st23" x1="1550.4" y1="450.6" x2="1536.6" y2="417.5"/>
	<g>
		<g>
			<path class="st3" d="M1554.8,477.1c0.1,0.2,0.3,0.6,0.5,1.2"/>
			<path class="st65" d="M1556.3,480.6c3,6.8,10.9,20.5,29.3,19.8c19.6-0.8,26.9-14.9,29.3-20.9"/>
			<path class="st3" d="M1615.2,478.3c0.2-0.5,0.3-0.9,0.4-1.2"/>
		</g>
	</g>
	<g>
		<g>
			<path class="st3" d="M1550.4,476.9c0.1,0.2,0.3,0.6,0.5,1.2"/>
			<path class="st66" d="M1551.8,480.3c3.3,8.2,12.5,27.5,33.8,26.8c22.5-0.8,31.3-20.7,33.8-27.9"/>
			<path class="st3" d="M1619.8,478.1c0.2-0.6,0.3-1,0.4-1.2"/>
		</g>
	</g>
	<g>
		<g>
			<defs>
				<path id="SVGID_41_" d="M1595.7,470.4v243.5c63.1-4.6,112.9-57.3,112.9-121.8S1658.8,475,1595.7,470.4z"/>
			</defs>
			<clipPath id="SVGID_42_">
				<use xlink:href="#SVGID_41_"  style="overflow:visible;"/>
			</clipPath>
			<g class="st67">
				<g>
					<path class="st3" d="M1529,485.2c0.1,0.4,0.3,0.9,0.5,1.6"/>
					<path class="st25" d="M1530.9,489.8c5.8,12.1,24.5,39.6,56.1,38.8c33.1-0.8,49.8-29.6,54.2-40.3"/>
					<path class="st3" d="M1641.9,486.8c0.2-0.6,0.4-1.2,0.5-1.6"/>
				</g>
			</g>
		</g>
		<g>
			<defs>
				<path id="SVGID_43_" d="M1595.7,470.4v243.5c63.1-4.6,112.9-57.3,112.9-121.8S1658.8,475,1595.7,470.4z"/>
			</defs>
			<clipPath id="SVGID_44_">
				<use xlink:href="#SVGID_43_"  style="overflow:visible;"/>
			</clipPath>
			<g class="st68">
				<g>
					<path class="st3" d="M1521.8,490.1c0,0.5,0.1,1,0.3,1.6"/>
					<path class="st27" d="M1523.2,494.9c6.1,14.3,31.2,44.6,63.8,43.8c34.3-0.8,56.7-29.7,62.7-43.2"/>
					<path class="st3" d="M1650.3,493.9c0.2-0.6,0.4-1.1,0.5-1.6"/>
				</g>
			</g>
		</g>
		<g>
			<defs>
				<path id="SVGID_45_" d="M1595.7,470.4v243.5c63.1-4.6,112.9-57.3,112.9-121.8S1658.8,475,1595.7,470.4z"/>
			</defs>
			<clipPath id="SVGID_46_">
				<use xlink:href="#SVGID_45_"  style="overflow:visible;"/>
			</clipPath>
			<g class="st69">
				<g>
					<path class="st3" d="M1512,495.3c0,0.5,0.1,1.1,0.2,1.7"/>
					<path class="st29" d="M1513,500.1c6.3,19.1,40.1,49.5,74,48.7c35-0.9,64.3-30,71.7-47"/>
					<path class="st3" d="M1659.4,500.3c0.2-0.5,0.4-1.1,0.5-1.6"/>
				</g>
			</g>
		</g>
		<g>
			<defs>
				<path id="SVGID_47_" d="M1595.7,470.4v243.5c63.1-4.6,112.9-57.3,112.9-121.8S1658.8,475,1595.7,470.4z"/>
			</defs>
			<clipPath id="SVGID_48_">
				<use xlink:href="#SVGID_47_"  style="overflow:visible;"/>
			</clipPath>
			<g class="st70">
				<g>
					<path class="st3" d="M1504.1,501.9c0.1,0.5,0.3,1.1,0.4,1.6"/>
					<path class="st31" d="M1505.6,506.6c8.1,20.6,40.3,53.1,83.5,51.7c37.4-1.2,68.9-30.6,76.5-49.9"/>
					<path class="st3" d="M1666.2,507c0.2-0.5,0.3-1.1,0.5-1.6"/>
				</g>
			</g>
		</g>
		<g>
			<defs>
				<path id="SVGID_49_" d="M1595.7,470.4v243.5c63.1-4.6,112.9-57.3,112.9-121.8S1658.8,475,1595.7,470.4z"/>
			</defs>
			<clipPath id="SVGID_50_">
				<use xlink:href="#SVGID_49_"  style="overflow:visible;"/>
			</clipPath>
			<g class="st71">
				<g>
					<path class="st3" d="M1496,510.4c0,0.5,0.1,1.1,0.2,1.7"/>
					<path class="st33" d="M1497.1,515.2c7,19.7,45.3,53.8,89.9,53.7c35.8-0.1,78.6-27.8,87.2-53.5"/>
					<path class="st3" d="M1674.7,513.8c0.2-0.5,0.3-1.1,0.4-1.6"/>
				</g>
			</g>
		</g>
		<g>
			<defs>
				<path id="SVGID_51_" d="M1595.7,470.4v243.5c63.1-4.6,112.9-57.3,112.9-121.8S1658.8,475,1595.7,470.4z"/>
			</defs>
			<clipPath id="SVGID_52_">
				<use xlink:href="#SVGID_51_"  style="overflow:visible;"/>
			</clipPath>
			<g class="st72">
				<g>
					<path class="st3" d="M1490.1,518.3c0.2,0.5,0.4,1,0.7,1.5"/>
					<path class="st35" d="M1492.1,522.9c15.8,32.4,52.3,57,97,57.3c43.1,0.3,83.9-36.4,92.4-56.4"/>
					<path class="st3" d="M1682.2,522.2c0.2-0.5,0.4-1.1,0.5-1.6"/>
				</g>
			</g>
		</g>
		<g>
			<defs>
				<path id="SVGID_53_" d="M1595.7,470.4v243.5c63.1-4.6,112.9-57.3,112.9-121.8S1658.8,475,1595.7,470.4z"/>
			</defs>
			<clipPath id="SVGID_54_">
				<use xlink:href="#SVGID_53_"  style="overflow:visible;"/>
			</clipPath>
			<g class="st73">
				<g>
					<path class="st3" d="M1482,528.5c0.2,0.5,0.3,1.1,0.5,1.6"/>
					<path class="st37" d="M1483.8,533.2c12.8,26.3,68.3,58.4,103.2,57.5c35.6-0.9,91-32.3,99-55"/>
					<path class="st3" d="M1686.5,534.1c0.1-0.6,0.3-1.1,0.3-1.6"/>
				</g>
			</g>
		</g>
		<g>
			<defs>
				<path id="SVGID_55_" d="M1595.7,470.4v243.5c63.1-4.6,112.9-57.3,112.9-121.8S1658.8,475,1595.7,470.4z"/>
			</defs>
			<clipPath id="SVGID_56_">
				<use xlink:href="#SVGID_55_"  style="overflow:visible;"/>
			</clipPath>
			<g class="st74">
				<g>
					<path class="st3" d="M1476.9,537.5c0.1,0.5,0.3,1.1,0.4,1.6"/>
					<path class="st39" d="M1478.6,542.2c10.6,21.1,60.9,58,110.5,58.1c40.2,0.1,93.8-36.3,103.6-56.3"/>
					<path class="st3" d="M1693.4,542.5c0.2-0.5,0.4-1.1,0.5-1.6"/>
				</g>
			</g>
		</g>
		<g>
			<defs>
				<path id="SVGID_57_" d="M1595.7,470.4v243.5c63.1-4.6,112.9-57.3,112.9-121.8S1658.8,475,1595.7,470.4z"/>
			</defs>
			<clipPath id="SVGID_58_">
				<use xlink:href="#SVGID_57_"  style="overflow:visible;"/>
			</clipPath>
			<g class="st75">
				<g>
					<path class="st3" d="M1471.3,548.8c0,0.5,0.1,1.1,0.3,1.6"/>
					<path class="st41" d="M1472.8,553.6c10.1,20.1,69.5,57.3,114.2,57.2c35.9-0.1,98-30.4,110.6-57.1"/>
					<path class="st3" d="M1698.3,552.2c0.2-0.5,0.4-1,0.6-1.6"/>
				</g>
			</g>
		</g>
		<g>
			<defs>
				<path id="SVGID_59_" d="M1595.7,470.4v243.5c63.1-4.6,112.9-57.3,112.9-121.8S1658.8,475,1595.7,470.4z"/>
			</defs>
			<clipPath id="SVGID_60_">
				<use xlink:href="#SVGID_59_"  style="overflow:visible;"/>
			</clipPath>
			<g class="st76">
				<g>
					<path class="st3" d="M1466.5,558.8c0.2,0.5,0.5,1,0.7,1.5"/>
					<path class="st43" d="M1468.9,563.3c19.9,34.2,75.4,56.8,120.2,57.1c43.5,0.3,100.6-33.2,113.2-55.2"/>
					<path class="st3" d="M1703.2,563.7c0.3-0.5,0.5-1,0.7-1.5"/>
				</g>
			</g>
		</g>
		<g>
			<defs>
				<path id="SVGID_61_" d="M1595.7,470.4v243.5c63.1-4.6,112.9-57.3,112.9-121.8S1658.8,475,1595.7,470.4z"/>
			</defs>
			<clipPath id="SVGID_62_">
				<use xlink:href="#SVGID_61_"  style="overflow:visible;"/>
			</clipPath>
			<g class="st77">
				<g>
					<path class="st3" d="M1464.2,571.6c0.2,0.5,0.5,1,0.7,1.5"/>
					<path class="st45" d="M1466.6,576c20.1,34,77.7,54.1,122.5,54.4c43.5,0.3,102.3-30.6,115.1-52.4"/>
					<path class="st3" d="M1705.1,576.6c0.3-0.5,0.5-1,0.7-1.5"/>
				</g>
			</g>
		</g>
		<g>
			<defs>
				<path id="SVGID_63_" d="M1595.7,470.4v243.5c63.1-4.6,112.9-57.3,112.9-121.8S1658.8,475,1595.7,470.4z"/>
			</defs>
			<clipPath id="SVGID_64_">
				<use xlink:href="#SVGID_63_"  style="overflow:visible;"/>
			</clipPath>
			<g class="st78">
				<g>
					<path class="st3" d="M1465.1,590c0.3,0.5,0.6,0.9,0.9,1.4"/>
					<path class="st47" d="M1468.1,594.1c16.9,19.5,73.7,46.4,118.9,47c41.6,0.5,100.2-27.5,118.7-50"/>
					<path class="st3" d="M1706.8,589.7c0.3-0.5,0.7-0.9,1-1.4"/>
				</g>
			</g>
		</g>
		<g>
			<defs>
				<path id="SVGID_65_" d="M1595.7,470.4v243.5c63.1-4.6,112.9-57.3,112.9-121.8S1658.8,475,1595.7,470.4z"/>
			</defs>
			<clipPath id="SVGID_66_">
				<use xlink:href="#SVGID_65_"  style="overflow:visible;"/>
			</clipPath>
			<g class="st79">
				<g>
					<path class="st3" d="M1464.9,603.2c0.4,0.4,0.8,0.8,1.2,1.1"/>
					<path class="st49" d="M1468.7,606.6c29.1,25.2,74.7,44.7,119.3,44.1c41.4-0.5,89.5-19.8,115.6-44.4"/>
					<path class="st3" d="M1704.9,605.2c0.4-0.4,0.8-0.8,1.2-1.2"/>
				</g>
			</g>
		</g>
		<g>
			<defs>
				<path id="SVGID_67_" d="M1595.7,470.4v243.5c63.1-4.6,112.9-57.3,112.9-121.8S1658.8,475,1595.7,470.4z"/>
			</defs>
			<clipPath id="SVGID_68_">
				<use xlink:href="#SVGID_67_"  style="overflow:visible;"/>
			</clipPath>
			<g class="st80">
				<g>
					<path class="st3" d="M1466.9,619c0.4,0.4,0.8,0.8,1.2,1.1"/>
					<path class="st51" d="M1470.7,622.3c26.5,21.9,73.9,38,118.5,38.4c42.8,0.3,99.2-25.4,113.2-39.9"/>
					<path class="st3" d="M1703.5,619.4c0.4-0.5,0.7-0.9,1-1.3"/>
				</g>
			</g>
		</g>
		<g>
			<defs>
				<path id="SVGID_69_" d="M1595.7,470.4v243.5c63.1-4.6,112.9-57.3,112.9-121.8S1658.8,475,1595.7,470.4z"/>
			</defs>
			<clipPath id="SVGID_70_">
				<use xlink:href="#SVGID_69_"  style="overflow:visible;"/>
			</clipPath>
			<g class="st81">
				<g>
					<path class="st3" d="M1472.7,635.5c0.4,0.3,0.8,0.7,1.3,1.1"/>
					<path class="st53" d="M1476.7,638.5c17.5,11.9,65.9,32.8,110.4,32.7c35.5-0.1,92.5-16.8,109.2-33.5"/>
					<path class="st3" d="M1697.3,636.5c0.4-0.4,0.7-0.9,1.1-1.3"/>
				</g>
			</g>
		</g>
		<g>
			<defs>
				<path id="SVGID_71_" d="M1595.7,470.4v243.5c63.1-4.6,112.9-57.3,112.9-121.8S1658.8,475,1595.7,470.4z"/>
			</defs>
			<clipPath id="SVGID_72_">
				<use xlink:href="#SVGID_71_"  style="overflow:visible;"/>
			</clipPath>
			<g class="st82">
				<g>
					<path class="st3" d="M1480.1,652.2c0.4,0.3,0.8,0.7,1.3,1.1"/>
					<path class="st83" d="M1484.1,655.2c16.6,11.1,58.6,26.5,102.9,26.4c35.4-0.1,83.6-14.5,101.3-27.6"/>
					<path class="st3" d="M1689.6,653c0.4-0.4,0.9-0.7,1.3-1.1"/>
				</g>
			</g>
		</g>
		<g>
			<defs>
				<path id="SVGID_73_" d="M1595.7,470.4v243.5c63.1-4.6,112.9-57.3,112.9-121.8S1658.8,475,1595.7,470.4z"/>
			</defs>
			<clipPath id="SVGID_74_">
				<use xlink:href="#SVGID_73_"  style="overflow:visible;"/>
			</clipPath>
			<g class="st84">
				<g>
					<path class="st3" d="M1491.2,669.6c0.5,0.3,1,0.6,1.4,0.8"/>
					<path class="st57" d="M1495.6,672c16.7,8.8,47.1,19.4,91.4,19.3c35.3-0.1,69.1-9.2,86.8-19"/>
					<path class="st3" d="M1675.2,671.5c0.5-0.3,1-0.6,1.4-0.9"/>
				</g>
			</g>
		</g>
		<g>
			<defs>
				<path id="SVGID_75_" d="M1595.7,470.4v243.5c63.1-4.6,112.9-57.3,112.9-121.8S1658.8,475,1595.7,470.4z"/>
			</defs>
			<clipPath id="SVGID_76_">
				<use xlink:href="#SVGID_75_"  style="overflow:visible;"/>
			</clipPath>
			<g class="st85">
				<g>
					<path class="st3" d="M1511.7,688.9c0.5,0.2,1.1,0.4,1.6,0.6"/>
					<path class="st59" d="M1516.5,690.6c16,5.7,32.7,10.8,67.5,11.7c30.9,0.8,53.7-6.9,71.7-12"/>
					<path class="st3" d="M1657.3,689.9c0.5-0.2,1.1-0.3,1.6-0.4"/>
				</g>
			</g>
		</g>
		<g>
			<defs>
				<path id="SVGID_77_" d="M1595.7,470.4v243.5c63.1-4.6,112.9-57.3,112.9-121.8S1658.8,475,1595.7,470.4z"/>
			</defs>
			<clipPath id="SVGID_78_">
				<use xlink:href="#SVGID_77_"  style="overflow:visible;"/>
			</clipPath>
			<g class="st86">
				<g>
					<path class="st3" d="M1554,709c0.5,0.2,1,0.3,1.6,0.5"/>
					<path class="st61" d="M1559,710.3c7.3,1.5,16.9,2.3,26.5,2.2c9.6,0,20.6-1.2,27.6-2.6"/>
					<path class="st3" d="M1614.9,709.6c0.6-0.1,1.1-0.2,1.6-0.4"/>
				</g>
			</g>
		</g>
	</g>
	<line class="st23" x1="1378.7" y1="1092.4" x2="1791.7" y2="1092.4"/>
	<g>
		<g>
			<line class="st3" x1="1378.7" y1="1082.8" x2="1378.7" y2="1084.5"/>
			<line class="st87" x1="1378.7" y1="1087.9" x2="1378.7" y2="1099.8"/>
			<line class="st3" x1="1378.7" y1="1101.5" x2="1378.7" y2="1103.2"/>
		</g>
	</g>
	<g>
		<g>
			<line class="st3" x1="1420.6" y1="1082.8" x2="1420.6" y2="1084.5"/>
			<line class="st87" x1="1420.6" y1="1087.9" x2="1420.6" y2="1099.8"/>
			<line class="st3" x1="1420.6" y1="1101.5" x2="1420.6" y2="1103.2"/>
		</g>
	</g>
	<g>
		<g>
			<line class="st3" x1="1462.8" y1="1082.8" x2="1462.8" y2="1084.5"/>
			<line class="st87" x1="1462.8" y1="1087.9" x2="1462.8" y2="1099.8"/>
			<line class="st3" x1="1462.8" y1="1101.5" x2="1462.8" y2="1103.2"/>
		</g>
	</g>
	<g>
		<g>
			<line class="st3" x1="1504.7" y1="1082.8" x2="1504.7" y2="1084.5"/>
			<line class="st87" x1="1504.7" y1="1087.9" x2="1504.7" y2="1099.8"/>
			<line class="st3" x1="1504.7" y1="1101.5" x2="1504.7" y2="1103.2"/>
		</g>
	</g>
	<g>
		<g>
			<line class="st3" x1="1544.2" y1="1082.8" x2="1544.2" y2="1084.5"/>
			<line class="st87" x1="1544.2" y1="1087.9" x2="1544.2" y2="1099.8"/>
			<line class="st3" x1="1544.2" y1="1101.5" x2="1544.2" y2="1103.2"/>
		</g>
	</g>
	<g>
		<g>
			<line class="st3" x1="1586.1" y1="1082.8" x2="1586.1" y2="1084.5"/>
			<line class="st87" x1="1586.1" y1="1087.9" x2="1586.1" y2="1099.8"/>
			<line class="st3" x1="1586.1" y1="1101.5" x2="1586.1" y2="1103.2"/>
		</g>
	</g>
	<g>
		<g>
			<line class="st3" x1="1628.3" y1="1082.8" x2="1628.3" y2="1084.5"/>
			<line class="st87" x1="1628.3" y1="1087.9" x2="1628.3" y2="1099.8"/>
			<line class="st3" x1="1628.3" y1="1101.5" x2="1628.3" y2="1103.2"/>
		</g>
	</g>
	<g>
		<g>
			<line class="st3" x1="1670.2" y1="1082.8" x2="1670.2" y2="1084.5"/>
			<line class="st87" x1="1670.2" y1="1087.9" x2="1670.2" y2="1099.8"/>
			<line class="st3" x1="1670.2" y1="1101.5" x2="1670.2" y2="1103.2"/>
		</g>
	</g>
	<g>
		<g>
			<line class="st3" x1="1707.3" y1="1082.8" x2="1707.3" y2="1084.5"/>
			<line class="st87" x1="1707.3" y1="1087.9" x2="1707.3" y2="1099.8"/>
			<line class="st3" x1="1707.3" y1="1101.5" x2="1707.3" y2="1103.2"/>
		</g>
	</g>
	<g>
		<g>
			<line class="st3" x1="1749.5" y1="1082.8" x2="1749.5" y2="1084.5"/>
			<line class="st87" x1="1749.5" y1="1087.9" x2="1749.5" y2="1099.8"/>
			<line class="st3" x1="1749.5" y1="1101.5" x2="1749.5" y2="1103.2"/>
		</g>
	</g>
	<g>
		<g>
			<line class="st3" x1="1791.4" y1="1082.8" x2="1791.4" y2="1084.5"/>
			<line class="st87" x1="1791.4" y1="1087.9" x2="1791.4" y2="1099.8"/>
			<line class="st3" x1="1791.4" y1="1101.5" x2="1791.4" y2="1103.2"/>
		</g>
	</g>
	<g id="XMLID_3_">
		<g>
			<path class="st23" d="M1302.2,660.9h-31.6v21.6c0,5.3,4.3,9.6,9.6,9.6h22V660.9z"/>
			<path class="st23" d="M1313.4,649.9h-55.6v35.2c0,11,8.9,19.8,19.8,19.8h35.8L1313.4,649.9L1313.4,649.9z"/>
		</g>
	</g>
	<g id="XMLID_6_">
		<g>
			<path class="st23" d="M1836.8,816.2H1713v-70.9c0-14.6,11.9-26.5,26.5-26.5h97.3V816.2z"/>
			<path class="st23" d="M1806.7,784.5H1742v-23.6c0-5.9,4.8-10.7,10.7-10.7h53.9L1806.7,784.5L1806.7,784.5z"/>
		</g>
	</g>
	<g id="XMLID_14_">
		<g>
			<path class="st23" d="M1362.4,786.1h64.7v-23.6c0-5.9-4.8-10.7-10.7-10.7h-53.9L1362.4,786.1L1362.4,786.1z"/>
		</g>
	</g>
	<g>
		<g id="XMLID_10_">
			<g>
				<path class="st23" d="M1768.1,612.1c0.6-5.9,0.9-11.8,0.9-17.8c0-5.7-0.3-11.3-0.8-16.9c-0.3-3.5-0.7-6.9-1.2-10.3l-4.1-20.1
					c-0.5-1.9-1.1-3.8-1.6-5.7c-3.4-11.4-7.9-22.3-13.3-32.7c-5.7-10.9-12.5-21.2-20.2-30.6s-16.2-18.1-25.6-25.8l-0.1,0.1
					l-29.9-20.3c-0.3-0.1-0.5-0.3-0.7-0.4c-10.2-5.4-21-9.9-32.2-13.3c-0.9-0.3-1.8-0.6-2.7-0.8l-18.4-4.3c-4.9-0.9-9.9-1.6-15-2.1
					c-5.7-0.6-11.5-0.8-17.3-0.8s-11.6,0.3-17.3,0.8c-5.2,0.5-10.4,1.2-15.5,2.1l-17.6,4.1c-1,0.3-2,0.6-3,0.9
					c-11.2,3.4-22,7.9-32.2,13.3c-0.2,0.1-0.4,0.2-0.6,0.3l-30,20.4l-0.2-0.2c-9.4,7.7-18,16.4-25.6,25.8
					c-7.7,9.5-14.5,19.8-20.3,30.7c-5.4,10.3-9.9,21.2-13.3,32.6c-0.4,1.4-0.8,2.8-1.2,4.2l-4.8,23.3c-0.4,2.9-0.7,5.8-1,8.7
					c-0.5,5.6-0.8,11.2-0.8,16.9c0,6,0.3,12,0.9,17.8l0.5,0.1l2.9,20.2l0.6,4c15,64.2,63.4,115.5,125.9,134.3l29.1,6.2
					c7.7,1,15.5,1.5,23.5,1.5c8.3,0,16.5-0.6,24.5-1.7l27-5.7c63.5-18.6,112.8-70.9,127.3-136.3l0.5-3.4l2.7-19L1768.1,612.1z"/>
				<polyline class="st23" points="1500.1,431.5 1493.6,413.9 1456.5,438.7 1469.3,452.1 				"/>
				<polyline class="st23" points="1409.8,541.1 1393,533 1383.6,576.7 1402.4,577.4 				"/>
				<polyline class="st23" points="1403.2,612.1 1385.1,610.3 1387.9,638.2 1405.8,632.5 				"/>
				<polyline class="st23" points="1568.2,409.7 1568.6,391 1525,400.8 1532.3,418.1 				"/>
				<polyline class="st23" points="1702.1,452.2 1714.9,438.7 1677.8,413.9 1671.4,431.5 				"/>
				<polyline class="st23" points="1769.1,577.3 1787.9,576.6 1778.5,532.9 1761.6,541.1 				"/>
				<polyline class="st23" points="1766.3,631.3 1784.2,637 1786.4,610.2 1768.1,612.1 				"/>
				<polyline class="st23" points="1639.2,418.2 1646.4,400.8 1602.8,391 1603.2,409.8 				"/>
				<polyline class="st23" points="1749.2,507.9 1766.3,500.4 1741.5,463.2 1728.8,477 				"/>
				<polyline class="st23" points="1443.2,477.5 1430.8,463.5 1405.2,500 1422,507.9 				"/>
			</g>
		</g>
	</g>
	<line class="st23" x1="1618.7" y1="450.6" x2="1632.6" y2="417.5"/>
	<g id="XMLID_2_">
		<g>
			<path class="st88" d="M1302.5,1108h-30.6v-20.6c0-5.3,4.3-9.6,9.6-9.6h21V1108z"/>
			<path class="st88" d="M1311.6,1117h-48.9v-35c0-7.3,5.9-13.2,13.2-13.2h35.7L1311.6,1117L1311.6,1117z"/>
		</g>
	</g>
	<g id="XMLID_12_">
		<g>
			<rect x="1336.7" y="839.8" class="st23" width="127.6" height="89.2"/>
			<rect x="1328.4" y="829.9" class="st23" width="144.3" height="104.9"/>
		</g>
	</g>
	<g id="XMLID_13_">
		<g>
			<rect x="1702.9" y="839.8" class="st23" width="127.6" height="89.2"/>
			<rect x="1694.3" y="829.9" class="st23" width="144.3" height="104.9"/>
		</g>
	</g>
	<g id="XMLID_1_">
		<g>
			<path class="st89" d="M968.8,1109.8h48.9l-0.5-71.3h-4.9l-1-9.8c0-8.4-7-13.5-15.4-15.2h-27L968.8,1109.8L968.8,1109.8z"/>
			<path class="st90" d="M960.4,1118.4h66.3l-0.7-88.4h-6.7l-1.3-8.5c0-10-9.5-16.1-20.9-18.1h-36.7L960.4,1118.4L960.4,1118.4z"/>
		</g>
	</g>
	<g id="XMLID_4_">
		<g>
			<path class="st23" d="M967.5,660.9h51l-0.6,74h-5.1l-1,12.1c0,8.9-7.3,14.3-16.1,16.1h-28.2L967.5,660.9L967.5,660.9z"/>
			<path class="st23" d="M958.7,650.5h69.2l-0.7,91.8h-7l-1.4,8.8c0,10.4-9.9,16.7-21.8,18.8h-38.2V650.5H958.7z"/>
		</g>
	</g>
	<g>
		<path class="st23" d="M1284.7,705.2c-12.9-2.7-23.1-12.9-25.7-25.8c-34.2-29.1-75.9-46.2-121-46.2c-40.2,0-77.8,13.6-109.7,37.2
			l-0.1,12.4c31.7-26.2,69.9-41.4,111-41.4c88.9,0,164.2,71.4,189.8,170V781C1318.1,752.5,1303,726.8,1284.7,705.2z"/>
		<path class="st23" d="M1334,935.8c-19,110.6-99,193.6-194.8,193.6c-41.1,0-79.3-15.3-111-41.5l0.1,12.6
			c31.9,23.6,69.5,37.3,109.7,37.3c46.3,0,89.1-18.1,123.9-48.7c1.2-10.1,9.2-18.1,19.3-19.3c21.3-24,38.5-53.2,50-86"/>
		<path class="st23" d="M959.2,753.4c-6.6,12.9-12.3,26.5-16.9,40.8v27.4h4.5v0.5c3.9-18,9.5-35.2,16.5-51.3"/>
		<path class="st23" d="M940.6,952.6v18.6c4.9,16.3,11.1,31.8,18.6,46.4v-16.1h4.8c-6.8-15.4-12.3-31.7-16.3-48.9H940.6z"/>
		<path class="st23" d="M1138,650.1c-40.9,0-78.8,15.6-109.9,42.2l-0.1,15.4c30.8-29.2,69.3-46.5,111.2-46.5
			c100.6,0,182.2,100.2,182.2,223.8s-81.6,223.8-182.2,223.8c-41.9,0-80.5-17.4-111.2-46.5l0.1,13.8c31.1,26.6,69,42.2,109.9,42.2
			c102.7,0,186.5-98.3,191.7-222V872C1324.5,748.4,1240.6,650.1,1138,650.1z"/>
		<path class="st23" d="M951.1,937.9c4.4,22.6,11.4,44,20.7,63.6h11.7c-16.9-34-26.6-73.9-26.6-116.6c0-41.7,9.3-80.8,25.5-114.2
			H970c-8.9,19.6-15.6,41-19.6,63.5"/>
		<path class="st23" d="M1027.8,718.9c29.9-30.6,68.3-49,110.1-49c95.6,0,173.1,96,173.1,214.4s-77.5,214.4-173.1,214.4
			c-41.8,0-80.2-18.4-110.2-49"/>
		<path class="st23" d="M993,1001.5c-17.8-33.7-28.1-73.9-28.1-117.2c0-41.7,9.6-80.6,26.2-113.6"/>
		<path class="st23" d="M1027,1027.4l0.7,7.6c29.1,33.4,67.8,53.8,110.3,53.8c90.2,0,163.3-91.7,163.3-204.7
			s-73.1-204.7-163.3-204.7c-42.5,0-81.2,20.4-110.2,53.7l-0.1,10.2h-7l-1.4,8.8c0,8.9-7.2,14.8-16.8,17.6
			c-17.6,32.7-27.8,72-27.8,114.4c0,44.7,11.4,86.1,30.9,119.8c8,3.1,13.8,8.7,13.8,16.6l0.5,6.1"/>
		<ellipse class="st23" cx="1138" cy="884.8" rx="152.4" ry="195.6"/>
	</g>
	<g>
		<g>
			<polyline class="st3" points="1529,823.6 1529,825.3 1527.3,825.3 			"/>
			<line class="st91" x1="1524.8" y1="825.3" x2="1520.9" y2="825.3"/>
			<polyline class="st3" points="1519.6,825.3 1517.9,825.3 1517.9,823.6 			"/>
			<line class="st91" x1="1517.9" y1="821" x2="1517.9" y2="817.2"/>
			<polyline class="st3" points="1517.9,815.9 1517.9,814.2 1519.6,814.2 			"/>
			<line class="st91" x1="1522.2" y1="814.2" x2="1526" y2="814.2"/>
			<polyline class="st3" points="1527.3,814.2 1529,814.2 1529,815.9 			"/>
			<line class="st91" x1="1529" y1="818.4" x2="1529" y2="822.3"/>
		</g>
	</g>
	<g>
		<g>
			<polyline class="st3" points="1569.2,823.6 1569.2,825.3 1567.5,825.3 			"/>
			<line class="st91" x1="1565" y1="825.3" x2="1561.1" y2="825.3"/>
			<polyline class="st3" points="1559.8,825.3 1558.1,825.3 1558.1,823.6 			"/>
			<line class="st91" x1="1558.1" y1="821" x2="1558.1" y2="817.2"/>
			<polyline class="st3" points="1558.1,815.9 1558.1,814.2 1559.8,814.2 			"/>
			<line class="st91" x1="1562.4" y1="814.2" x2="1566.2" y2="814.2"/>
			<polyline class="st3" points="1567.5,814.2 1569.2,814.2 1569.2,815.9 			"/>
			<line class="st91" x1="1569.2" y1="818.4" x2="1569.2" y2="822.3"/>
		</g>
	</g>
	<g>
		<g>
			<polyline class="st3" points="1610.3,823.6 1610.3,825.3 1608.6,825.3 			"/>
			<line class="st91" x1="1606" y1="825.3" x2="1602.2" y2="825.3"/>
			<polyline class="st3" points="1600.9,825.3 1599.2,825.3 1599.2,823.6 			"/>
			<line class="st91" x1="1599.2" y1="821" x2="1599.2" y2="817.2"/>
			<polyline class="st3" points="1599.2,815.9 1599.2,814.2 1600.9,814.2 			"/>
			<line class="st91" x1="1603.5" y1="814.2" x2="1607.3" y2="814.2"/>
			<polyline class="st3" points="1608.6,814.2 1610.3,814.2 1610.3,815.9 			"/>
			<line class="st91" x1="1610.3" y1="818.4" x2="1610.3" y2="822.3"/>
		</g>
	</g>
	<g>
		<g>
			<polyline class="st3" points="1650.5,823.6 1650.5,825.3 1648.8,825.3 			"/>
			<line class="st91" x1="1646.2" y1="825.3" x2="1642.4" y2="825.3"/>
			<polyline class="st3" points="1641.1,825.3 1639.4,825.3 1639.4,823.6 			"/>
			<line class="st91" x1="1639.4" y1="821" x2="1639.4" y2="817.2"/>
			<polyline class="st3" points="1639.4,815.9 1639.4,814.2 1641.1,814.2 			"/>
			<line class="st91" x1="1643.7" y1="814.2" x2="1647.5" y2="814.2"/>
			<polyline class="st3" points="1648.8,814.2 1650.5,814.2 1650.5,815.9 			"/>
			<line class="st91" x1="1650.5" y1="818.4" x2="1650.5" y2="822.3"/>
		</g>
	</g>
</g>
</svg>
