<?xml version="1.0" encoding="utf-8"?>
<!-- Generator: Adobe Illustrator 24.3.0, SVG Export Plug-In . SVG Version: 6.00 Build 0)  -->
<svg version="1.1" id="Layer_1" xmlns="http://www.w3.org/2000/svg" xmlns:xlink="http://www.w3.org/1999/xlink" x="0px" y="0px"
	 viewBox="0 0 3160 1519.2" style="enable-background:new 0 0 3160 1519.2;" xml:space="preserve">
<style type="text/css">
	.st0{fill:#0B2343;}
	.st1{fill:none;stroke:#FFFFFF;stroke-width:0.25;stroke-miterlimit:10;}
</style>
<g>
	<rect x="0.1" y="0.1" class="st0" width="3159.7" height="1519"/>
	<g>
		<line class="st1" x1="0.1" y1="0.1" x2="0.1" y2="1519.1"/>
		<line class="st1" x1="41.7" y1="0.1" x2="41.7" y2="1519.1"/>
		<line class="st1" x1="83.3" y1="0.1" x2="83.3" y2="1519.1"/>
		<line class="st1" x1="124.9" y1="0.1" x2="124.9" y2="1519.1"/>
		<line class="st1" x1="166.4" y1="0.1" x2="166.4" y2="1519.1"/>
		<line class="st1" x1="208" y1="0.1" x2="208" y2="1519.1"/>
		<line class="st1" x1="249.6" y1="0.1" x2="249.6" y2="1519.1"/>
		<line class="st1" x1="291.2" y1="0.1" x2="291.2" y2="1519.1"/>
		<line class="st1" x1="332.7" y1="0.1" x2="332.7" y2="1519.1"/>
		<line class="st1" x1="374.3" y1="0.1" x2="374.3" y2="1519.1"/>
		<line class="st1" x1="415.9" y1="0.1" x2="415.9" y2="1519.1"/>
		<line class="st1" x1="457.5" y1="0.1" x2="457.5" y2="1519.1"/>
		<line class="st1" x1="499" y1="0.1" x2="499" y2="1519.1"/>
		<line class="st1" x1="540.6" y1="0.1" x2="540.6" y2="1519.1"/>
		<line class="st1" x1="582.2" y1="0.1" x2="582.2" y2="1519.1"/>
		<line class="st1" x1="623.8" y1="0.1" x2="623.8" y2="1519.1"/>
		<line class="st1" x1="665.3" y1="0.1" x2="665.3" y2="1519.1"/>
		<line class="st1" x1="706.9" y1="0.1" x2="706.9" y2="1519.1"/>
		<line class="st1" x1="748.5" y1="0.1" x2="748.5" y2="1519.1"/>
		<line class="st1" x1="790.1" y1="0.1" x2="790.1" y2="1519.1"/>
		<line class="st1" x1="831.6" y1="0.1" x2="831.6" y2="1519.1"/>
		<line class="st1" x1="873.2" y1="0.1" x2="873.2" y2="1519.1"/>
		<line class="st1" x1="914.8" y1="0.1" x2="914.8" y2="1519.1"/>
		<line class="st1" x1="956.4" y1="0.1" x2="956.4" y2="1519.1"/>
		<line class="st1" x1="997.9" y1="0.1" x2="997.9" y2="1519.1"/>
		<line class="st1" x1="1039.5" y1="0.1" x2="1039.5" y2="1519.1"/>
		<line class="st1" x1="1081.1" y1="0.1" x2="1081.1" y2="1519.1"/>
		<line class="st1" x1="1122.7" y1="0.1" x2="1122.7" y2="1519.1"/>
		<line class="st1" x1="1164.2" y1="0.1" x2="1164.2" y2="1519.1"/>
		<line class="st1" x1="1205.8" y1="0.1" x2="1205.8" y2="1519.1"/>
		<line class="st1" x1="1247.4" y1="0.1" x2="1247.4" y2="1519.1"/>
		<line class="st1" x1="1289" y1="0.1" x2="1289" y2="1519.1"/>
		<line class="st1" x1="1330.5" y1="0.1" x2="1330.5" y2="1519.1"/>
		<line class="st1" x1="1372.1" y1="0.1" x2="1372.1" y2="1519.1"/>
		<line class="st1" x1="1413.7" y1="0.1" x2="1413.7" y2="1519.1"/>
		<line class="st1" x1="1455.3" y1="0.1" x2="1455.3" y2="1519.1"/>
		<line class="st1" x1="1496.8" y1="0.1" x2="1496.8" y2="1519.1"/>
		<line class="st1" x1="1538.4" y1="0.1" x2="1538.4" y2="1519.1"/>
		<line class="st1" x1="1580" y1="0.1" x2="1580" y2="1519.1"/>
		<line class="st1" x1="1621.6" y1="0.1" x2="1621.6" y2="1519.1"/>
		<line class="st1" x1="1663.1" y1="0.1" x2="1663.1" y2="1519.1"/>
		<line class="st1" x1="1704.7" y1="0.1" x2="1704.7" y2="1519.1"/>
		<line class="st1" x1="1746.3" y1="0.1" x2="1746.3" y2="1519.1"/>
		<line class="st1" x1="1787.9" y1="0.1" x2="1787.9" y2="1519.1"/>
		<line class="st1" x1="1829.4" y1="0.1" x2="1829.4" y2="1519.1"/>
		<line class="st1" x1="1871" y1="0.1" x2="1871" y2="1519.1"/>
		<line class="st1" x1="1912.6" y1="0.1" x2="1912.6" y2="1519.1"/>
		<line class="st1" x1="1954.2" y1="0.1" x2="1954.2" y2="1519.1"/>
		<line class="st1" x1="1995.7" y1="0.1" x2="1995.7" y2="1519.1"/>
		<line class="st1" x1="2037.3" y1="0.1" x2="2037.3" y2="1519.1"/>
		<line class="st1" x1="2078.9" y1="0.1" x2="2078.9" y2="1519.1"/>
		<line class="st1" x1="2120.5" y1="0.1" x2="2120.5" y2="1519.1"/>
		<line class="st1" x1="2162.1" y1="0.1" x2="2162.1" y2="1519.1"/>
		<line class="st1" x1="2203.6" y1="0.1" x2="2203.6" y2="1519.1"/>
		<line class="st1" x1="2245.2" y1="0.1" x2="2245.2" y2="1519.1"/>
		<line class="st1" x1="2286.8" y1="0.1" x2="2286.8" y2="1519.1"/>
		<line class="st1" x1="2328.4" y1="0.1" x2="2328.4" y2="1519.1"/>
		<line class="st1" x1="2369.9" y1="0.1" x2="2369.9" y2="1519.1"/>
		<line class="st1" x1="2411.5" y1="0.1" x2="2411.5" y2="1519.1"/>
		<line class="st1" x1="2453.1" y1="0.1" x2="2453.1" y2="1519.1"/>
		<line class="st1" x1="2494.7" y1="0.1" x2="2494.7" y2="1519.1"/>
		<line class="st1" x1="2536.2" y1="0.1" x2="2536.2" y2="1519.1"/>
		<line class="st1" x1="2577.8" y1="0.1" x2="2577.8" y2="1519.1"/>
		<line class="st1" x1="2619.4" y1="0.1" x2="2619.4" y2="1519.1"/>
		<line class="st1" x1="2661" y1="0.1" x2="2661" y2="1519.1"/>
		<line class="st1" x1="2702.5" y1="0.1" x2="2702.5" y2="1519.1"/>
		<line class="st1" x1="2744.1" y1="0.1" x2="2744.1" y2="1519.1"/>
		<line class="st1" x1="2785.7" y1="0.1" x2="2785.7" y2="1519.1"/>
		<line class="st1" x1="2827.3" y1="0.1" x2="2827.3" y2="1519.1"/>
		<line class="st1" x1="2868.8" y1="0.1" x2="2868.8" y2="1519.1"/>
		<line class="st1" x1="2910.4" y1="0.1" x2="2910.4" y2="1519.1"/>
		<line class="st1" x1="2952" y1="0.1" x2="2952" y2="1519.1"/>
		<line class="st1" x1="2993.6" y1="0.1" x2="2993.6" y2="1519.1"/>
		<line class="st1" x1="3035.1" y1="0.1" x2="3035.1" y2="1519.1"/>
		<line class="st1" x1="3076.7" y1="0.1" x2="3076.7" y2="1519.1"/>
		<line class="st1" x1="3118.3" y1="0.1" x2="3118.3" y2="1519.1"/>
		<line class="st1" x1="3159.9" y1="0.1" x2="3159.9" y2="1519.1"/>
	</g>
	<g>
		<line class="st1" x1="3159.9" y1="0.1" x2="0.1" y2="0.1"/>
		<line class="st1" x1="3159.9" y1="42.3" x2="0.1" y2="42.3"/>
		<line class="st1" x1="3159.9" y1="84.5" x2="0.1" y2="84.5"/>
		<line class="st1" x1="3159.9" y1="126.7" x2="0.1" y2="126.7"/>
		<line class="st1" x1="3159.9" y1="168.9" x2="0.1" y2="168.9"/>
		<line class="st1" x1="3159.9" y1="211.1" x2="0.1" y2="211.1"/>
		<line class="st1" x1="3159.9" y1="253.3" x2="0.1" y2="253.3"/>
		<line class="st1" x1="3159.9" y1="295.5" x2="0.1" y2="295.5"/>
		<line class="st1" x1="3159.9" y1="337.7" x2="0.1" y2="337.7"/>
		<line class="st1" x1="3159.9" y1="379.9" x2="0.1" y2="379.9"/>
		<line class="st1" x1="3159.9" y1="422.1" x2="0.1" y2="422.1"/>
		<line class="st1" x1="3159.9" y1="464.3" x2="0.1" y2="464.3"/>
		<line class="st1" x1="3159.9" y1="506.5" x2="0.1" y2="506.5"/>
		<line class="st1" x1="3159.9" y1="548.7" x2="0.1" y2="548.7"/>
		<line class="st1" x1="3159.9" y1="590.8" x2="0.1" y2="590.8"/>
		<line class="st1" x1="3159.9" y1="633" x2="0.1" y2="633"/>
		<line class="st1" x1="3159.9" y1="675.2" x2="0.1" y2="675.2"/>
		<line class="st1" x1="3159.9" y1="717.4" x2="0.1" y2="717.4"/>
		<line class="st1" x1="3159.9" y1="759.6" x2="0.1" y2="759.6"/>
		<line class="st1" x1="3159.9" y1="801.8" x2="0.1" y2="801.8"/>
		<line class="st1" x1="3159.9" y1="844" x2="0.1" y2="844"/>
		<line class="st1" x1="3159.9" y1="886.2" x2="0.1" y2="886.2"/>
		<line class="st1" x1="3159.9" y1="928.4" x2="0.1" y2="928.4"/>
		<line class="st1" x1="3159.9" y1="970.6" x2="0.1" y2="970.6"/>
		<line class="st1" x1="3159.9" y1="1012.8" x2="0.1" y2="1012.8"/>
		<line class="st1" x1="3159.9" y1="1055" x2="0.1" y2="1055"/>
		<line class="st1" x1="3159.9" y1="1097.2" x2="0.1" y2="1097.2"/>
		<line class="st1" x1="3159.9" y1="1139.4" x2="0.1" y2="1139.4"/>
		<line class="st1" x1="3159.9" y1="1181.6" x2="0.1" y2="1181.6"/>
		<line class="st1" x1="3159.9" y1="1223.8" x2="0.1" y2="1223.8"/>
		<line class="st1" x1="3159.9" y1="1266" x2="0.1" y2="1266"/>
		<line class="st1" x1="3159.9" y1="1308.2" x2="0.1" y2="1308.2"/>
		<line class="st1" x1="3159.9" y1="1350.3" x2="0.1" y2="1350.3"/>
		<line class="st1" x1="3159.9" y1="1392.5" x2="0.1" y2="1392.5"/>
		<line class="st1" x1="3159.9" y1="1434.7" x2="0.1" y2="1434.7"/>
		<line class="st1" x1="3159.9" y1="1476.9" x2="0.1" y2="1476.9"/>
		<line class="st1" x1="3159.9" y1="1519.1" x2="0.1" y2="1519.1"/>
	</g>
</g>
</svg>
