<svg id="Layer_1" data-name="Layer 1" xmlns="http://www.w3.org/2000/svg" viewBox="0 0 177.83 8.77"><defs><style>.cls-1,.cls-2,.cls-3,.cls-4,.cls-5{fill:none;stroke:#fff;stroke-miterlimit:10;}.cls-1,.cls-2,.cls-3{stroke-width:0.25px;}.cls-1{stroke-dasharray:1.44 1.44;}.cls-3,.cls-5{stroke-dasharray:1.47 1.47;}.cls-4,.cls-5{stroke-width:0.5px;}</style></defs><line class="cls-1" x1="0.13" y1="4.13" x2="177.68" y2="4.13"/><line class="cls-2" x1="0.13" x2="0.13" y2="0.72"/><line class="cls-3" x1="0.13" y1="2.18" x2="0.13" y2="7.32"/><line class="cls-2" x1="0.13" y1="8.05" x2="0.13" y2="8.77"/><line class="cls-2" x1="18.15" x2="18.15" y2="0.72"/><line class="cls-3" x1="18.15" y1="2.18" x2="18.15" y2="7.32"/><line class="cls-2" x1="18.15" y1="8.05" x2="18.15" y2="8.77"/><line class="cls-2" x1="36.3" x2="36.3" y2="0.72"/><line class="cls-3" x1="36.3" y1="2.18" x2="36.3" y2="7.32"/><line class="cls-2" x1="36.3" y1="8.05" x2="36.3" y2="8.77"/><line class="cls-2" x1="54.32" x2="54.32" y2="0.72"/><line class="cls-3" x1="54.32" y1="2.18" x2="54.32" y2="7.32"/><line class="cls-2" x1="54.32" y1="8.05" x2="54.32" y2="8.77"/><line class="cls-2" x1="71.27" x2="71.27" y2="0.72"/><line class="cls-3" x1="71.27" y1="2.18" x2="71.27" y2="7.32"/><line class="cls-2" x1="71.27" y1="8.05" x2="71.27" y2="8.77"/><line class="cls-2" x1="89.29" x2="89.29" y2="0.72"/><line class="cls-3" x1="89.29" y1="2.18" x2="89.29" y2="7.32"/><line class="cls-2" x1="89.29" y1="8.05" x2="89.29" y2="8.77"/><line class="cls-2" x1="107.45" x2="107.45" y2="0.72"/><line class="cls-3" x1="107.45" y1="2.18" x2="107.45" y2="7.32"/><line class="cls-2" x1="107.45" y1="8.05" x2="107.45" y2="8.77"/><line class="cls-2" x1="125.47" x2="125.47" y2="0.72"/><line class="cls-3" x1="125.47" y1="2.18" x2="125.47" y2="7.32"/><line class="cls-2" x1="125.47" y1="8.05" x2="125.47" y2="8.77"/><line class="cls-2" x1="141.4" x2="141.4" y2="0.72"/><line class="cls-3" x1="141.4" y1="2.18" x2="141.4" y2="7.32"/><line class="cls-2" x1="141.4" y1="8.05" x2="141.4" y2="8.77"/><line class="cls-2" x1="159.56" x2="159.56" y2="0.72"/><line class="cls-3" x1="159.56" y1="2.18" x2="159.56" y2="7.32"/><line class="cls-2" x1="159.56" y1="8.05" x2="159.56" y2="8.77"/><line class="cls-4" x1="177.58" x2="177.58" y2="0.72"/><line class="cls-5" x1="177.58" y1="2.18" x2="177.58" y2="7.32"/><line class="cls-4" x1="177.58" y1="8.05" x2="177.58" y2="8.77"/></svg>